HIERARCHY
ROOT RootJoint
{
    OFFSET   0.000000   0.000000   0.000000
    CHANNELS 6 Xposition Yposition Zposition Xrotation Yrotation Zrotation
    JOINT pelvis_lowerback
    {
        OFFSET   0.000000   0.093605   0.000000
        CHANNELS 3 Xrotation Yrotation Zrotation
        JOINT lowerback_torso
        {
            OFFSET   0.000000   0.100000   0.000000
            CHANNELS 3 Xrotation Yrotation Zrotation
            JOINT torso_head
            {
                OFFSET   0.000000   0.282350   0.000000
                CHANNELS 3 Xrotation Yrotation Zrotation
                End Site
                {
                    OFFSET   0.000000   0.192650   0.000000
                }
            }
            JOINT rTorso_Clavicle
            {
                OFFSET  -0.001000   0.157500   0.000000
                CHANNELS 3 Xrotation Yrotation Zrotation
                JOINT rShoulder
                {
                    OFFSET  -0.117647   0.000000   0.000000
                    CHANNELS 3 Xrotation Yrotation Zrotation
                    JOINT rElbow
                    {
                        OFFSET  -0.245000   0.000000   0.000000
                        CHANNELS 3 Xrotation Yrotation Zrotation
                        JOINT rWrist
                        {
                            OFFSET  -0.240000   0.000000   0.000000
                            CHANNELS 3 Xrotation Yrotation Zrotation
                            End Site
                            {
                                OFFSET  -0.116353  -0.002500   0.000000
                            }
                        }
                    }
                }
            }
            JOINT lTorso_Clavicle
            {
                OFFSET   0.001000   0.157500   0.000000
                CHANNELS 3 Xrotation Yrotation Zrotation
                JOINT lShoulder
                {
                    OFFSET   0.117647   0.000000   0.000000
                    CHANNELS 3 Xrotation Yrotation Zrotation
                    JOINT lElbow
                    {
                        OFFSET   0.245000   0.000000   0.000000
                        CHANNELS 3 Xrotation Yrotation Zrotation
                        JOINT lWrist
                        {
                            OFFSET   0.240000   0.000000   0.000000
                            CHANNELS 3 Xrotation Yrotation Zrotation
                            End Site
                            {
                                OFFSET   0.116353  -0.002500   0.000000
                            }
                        }
                    }
                }
            }
        }
    }
    JOINT rHip
    {
        OFFSET  -0.100000  -0.051395   0.000000
        CHANNELS 3 Xrotation Yrotation Zrotation
        JOINT rKnee
        {
            OFFSET   0.000000  -0.410000   0.000000
            CHANNELS 3 Xrotation Yrotation Zrotation
            JOINT rAnkle
            {
                OFFSET   0.000000  -0.390000   0.000000
                CHANNELS 3 Xrotation Yrotation Zrotation
                JOINT rToeJoint
                {
                    OFFSET   0.000000  -0.050000   0.130000
                    CHANNELS 3 Xrotation Yrotation Zrotation
                    End Site
                    {
                        OFFSET  -0.010000   0.002000   0.060000
                    }
                }
            }
        }
    }
    JOINT lHip
    {
        OFFSET   0.100000  -0.051395   0.000000
        CHANNELS 3 Xrotation Yrotation Zrotation
        JOINT lKnee
        {
            OFFSET   0.000000  -0.410000   0.000000
            CHANNELS 3 Xrotation Yrotation Zrotation
            JOINT lAnkle
            {
                OFFSET   0.000000  -0.390000   0.000000
                CHANNELS 3 Xrotation Yrotation Zrotation
                JOINT lToeJoint
                {
                    OFFSET   0.000000  -0.050000   0.130000
                    CHANNELS 3 Xrotation Yrotation Zrotation
                    End Site
                    {
                        OFFSET   0.010000   0.002000   0.060000
                    }
                }
            }
        }
    }
}
MOTION
Frames: 11
Frame Time:   0.008333
 -2.376719   0.925631   3.975860   0.000000   0.000000   0.000000   0.000000   0.000000   0.000000   0.000000   0.000000   0.000000   0.000000   0.000000   0.000000   0.000000   0.000000   0.000000   0.000000   0.000000   0.000000   0.000000   0.000000   0.000000   0.000000   0.000000   0.000000   0.000000   0.000000   0.000000   0.000000   0.000000   0.000000   0.000000   0.000000   0.000000   0.000000   0.000000   0.000000   0.000000   0.000000   0.000000   0.000000   0.000000   0.000000   0.000000   0.000000   0.000000   0.000000   0.000000   0.000000   0.000000   0.000000   0.000000   0.000000   0.000000   0.000000   0.000000   0.000000   0.000000   0.000000   0.000000   0.000000
 -2.375582   0.925965   3.974809  -0.255308  -1.063641   0.946856   0.776181   0.662509  -0.682618  -0.138336   0.138768  -0.613082   0.095186  -0.059267   0.284167   0.066385  -0.076382   0.463259   1.026763   0.076777   2.159000   0.005347   0.267152  -0.003413   0.171771   0.085509  -2.805490  -0.194170   0.715347  -0.211170  -2.161418   0.164157  -1.277979   0.013433  -0.853137  -0.014712   0.023702  -0.316319   2.865895  -1.193832   0.358361  -1.189897   3.514788   0.007171  -0.022563  -2.673917  -0.089815   0.358604  -0.258409   0.000190   0.001827  -0.027786   0.147914  -1.254757   1.500589   0.003852  -0.012059  -1.716977   0.480672   0.611486   0.382852  -0.000972  -0.001430
 -2.374106   0.926462   3.973994  -0.616702  -2.323672   1.985581   1.622355   1.350601  -1.393545  -0.110551   0.381739  -1.306610   0.255029  -0.124467   0.513241   0.137278  -0.183451   1.563225   2.042995   0.165334   4.847593   0.011747   0.511722  -0.006011   0.389208   0.198150  -4.948374  -0.381072   1.581556  -1.021620  -4.192002   0.475227  -2.935462   0.029277  -1.641924  -0.023885   0.013388  -0.796327   5.202173  -2.403241   0.691288  -2.518113   7.329641   0.012206  -0.052708  -5.158047  -0.199321   0.688781  -0.525918   0.000115   0.004050   0.117848   0.246134  -2.700641   3.139100   0.007757  -0.026537  -3.328041   0.906322   1.192986   0.635105  -0.001161  -0.002731
 -2.372530   0.926757   3.973477  -0.985904  -3.588849   2.961148   2.450394   2.011836  -2.050923  -0.026940   0.652683  -1.964940   0.432915  -0.187365   0.716016   0.204669  -0.317359   3.032703   3.043687   0.272605   7.866750   0.017504   0.728830  -0.007632   0.603973   0.271871  -6.345318  -0.532774   2.487511  -2.217606  -6.073132   0.897895  -4.798055   0.043066  -2.354441  -0.029209   0.007508  -1.162465   6.817712  -3.589584   1.018008  -3.790908  11.149627   0.012907  -0.079700  -7.472821  -0.317744   0.990638  -0.758827  -0.000027   0.005654   0.336506   0.318108  -4.135307   4.735408   0.010461  -0.038269  -4.833301   1.284473   1.743926   0.863260  -0.001158  -0.003766
 -2.370958   0.926601   3.973249  -1.346136  -4.776606   3.850437   3.241976   2.627222  -2.648783   0.072793   0.917587  -2.565889   0.611360  -0.246512   0.904117   0.270510  -0.470842   4.708134   4.030106   0.409848  11.109210   0.022085   0.922593  -0.008497   0.808324   0.306944  -7.186315  -0.646708   3.386487  -3.634464  -7.808011   1.404135  -6.744651   0.053335  -3.000034  -0.032071  -0.005601  -1.394633   7.884076  -4.740363   1.344103  -4.975092  14.949490   0.010239  -0.100355  -9.633959  -0.439829   1.265592  -0.977115  -0.000176   0.006748   0.594353   0.371996  -5.515804   6.254432   0.012058  -0.046133  -6.241519   1.622526   2.265000   1.068951  -0.001065  -0.004395
 -2.369452   0.925815   3.973293  -1.697378  -5.851038   4.656774   3.989209   3.190560  -3.190373   0.173904   1.162186  -3.107934   0.784490  -0.301645   1.079995   0.336791  -0.638499   6.482730   5.002210   0.584736  14.503338   0.025400   1.096726  -0.008827   1.000611   0.312127  -7.642140  -0.724483   4.256739  -5.158350  -9.403043   1.971826  -8.693528   0.059902  -3.587416  -0.033353  -0.029290  -1.518692   8.575793  -5.845214   1.669936  -6.071276  18.734350   0.005553  -0.114261 -11.651942  -0.562773   1.515410  -1.182641  -0.000311   0.007374   0.878257   0.411047  -6.832430   7.690596   0.012858  -0.050389  -7.559279   1.925622   2.756937   1.254013  -0.000930  -0.004649
 -2.368049   0.924275   3.973579  -2.041918  -6.799752   5.388314   4.688168   3.702466  -3.679283   0.269510   1.381920  -3.593461   0.949814  -0.352839   1.244313   0.405214  -0.816596   8.285710   5.959050   0.801768  18.000048   0.027546   1.253911  -0.008794   1.180802   0.294164  -7.839000  -0.769456   5.088901  -6.712827 -10.866428   2.582967 -10.592119   0.063161  -4.123725  -0.033619  -0.062860  -1.561339   9.024850  -6.897705   1.994347  -7.086881  22.510281  -0.000008  -0.122075 -13.536007  -0.684812   1.742091  -1.374764  -0.000424   0.007605   1.180832   0.436937  -8.083007   9.045414   0.013135  -0.051719  -8.792266   2.197881   3.220700   1.420821  -0.000783  -0.004616
 -2.367233   0.921384   3.974065  -2.492682  -7.662665   5.987426   5.471832   4.245329  -4.160858   0.319219   1.700319  -4.049741   1.119951  -0.515817   1.363002   0.598654  -0.922330   9.658550   6.802716   0.803839  21.537003   0.022455   1.263825  -0.007126   1.285032   0.341442  -7.230483  -1.098468   5.736965  -7.585722 -12.961677   3.230107 -12.296336   0.074943  -5.275007  -0.052029  -0.255552  -0.819078   8.857587  -8.018215   2.258492  -7.906513  26.484405  -0.009431  -0.128870 -14.261691  -0.925186   1.791298  -1.556424  -0.000682   0.007949   2.087887   0.522431  -9.142792   9.385751   0.011074  -0.043507  -9.681518   2.292254   3.728348   1.806015  -0.001161  -0.005522
 -2.366705   0.917282   3.974550  -2.933913  -8.270711   6.515426   6.193390   4.666988  -4.620695   0.351131   1.917508  -4.442657   1.273297  -0.665237   1.452088   0.786082  -1.038690  10.853570   7.595093   0.824478  24.792217   0.017736   1.257651  -0.005628   1.368850   0.299878  -6.577880  -1.430458   6.253266  -8.153550 -14.930587   3.787770 -13.707639   0.077410  -6.399606  -0.065541  -0.443768  -0.289988   8.867247  -9.210393   2.510550  -8.623011  30.454093  -0.017542  -0.126218 -14.924161  -1.152183   1.832618  -1.633868  -0.000675   0.007005   3.088719   0.563019 -10.087648   9.635300   0.009289  -0.035813 -10.517933   2.372708   4.202321   2.160245  -0.001458  -0.005376
 -2.366323   0.912062   3.975046  -3.371276  -8.688417   6.991760   6.860803   4.986862  -5.043642   0.372783   2.044707  -4.777311   1.412107  -0.803281   1.526543   0.965234  -1.161499  11.899108   8.336358   0.867341  27.782873   0.013798   1.246113  -0.004392   1.441851   0.218268  -6.035781  -1.754557   6.671107  -8.520797 -16.774520   4.282686 -14.899235   0.074143  -7.476365  -0.074387  -0.601765   0.060456   9.092226 -10.442534   2.771326  -9.270489  34.389587  -0.023176  -0.117637 -15.542698  -1.363307   1.867867  -1.700636  -0.000640   0.006054   4.148416   0.570254 -10.952182   9.887495   0.007892  -0.029245 -11.299774   2.442960   4.644843   2.486176  -0.001645  -0.004688
 -2.366015   0.905790   3.975567  -3.805648  -8.968582   7.426044   7.477776   5.226050  -5.423698   0.387255   2.103302  -5.060211   1.538973  -0.931594   1.593378   1.138623  -1.289267  12.817829   9.030233   0.926773  30.534636   0.010551   1.230421  -0.003383   1.507244   0.110497  -5.606849  -2.070161   7.014062  -8.748475 -18.502076   4.726851 -15.921842   0.067748  -8.501662  -0.079464  -0.735716   0.277018   9.472703 -11.699654   3.043432  -9.864855  38.289015  -0.026370  -0.106294 -16.120867  -1.559903   1.897876  -1.761615  -0.000600   0.005182   5.251952   0.546238 -11.751958  10.152917   0.006824  -0.023706 -12.029363   2.504145   5.058066   2.788473  -0.001734  -0.003797
